HIERARCHY
ROOT joint_Root
{
	OFFSET 0.0 0.0 0.0
	CHANNELS 6 Xposition Yposition Zposition Zrotation Xrotation Yrotation 
	JOINT Hips
	{
		OFFSET -17.1583 93.1646 452.98
		CHANNELS 6 Xposition Yposition Zposition Zrotation Xrotation Yrotation 
		JOINT Spine
		{
			OFFSET 15.7357 0.0 0.0
			CHANNELS 6 Xposition Yposition Zposition Zrotation Xrotation Yrotation 
			JOINT Chest
			{
				OFFSET 8.98455 -0.406207 0.0
				CHANNELS 6 Xposition Yposition Zposition Zrotation Xrotation Yrotation 
				JOINT Neck
				{
					OFFSET 16.3773 0.0 0.0
					CHANNELS 6 Xposition Yposition Zposition Zrotation Xrotation Yrotation 
					JOINT Head
					{
						OFFSET 6.45672 0.0 0.0
						CHANNELS 6 Xposition Yposition Zposition Zrotation Xrotation Yrotation 
						End Site
						{
							OFFSET 0.0 0.0 0.0
						}
					}
				}
				JOINT Shoulder_L
				{
					OFFSET 12.9942 -0.242716 4.98039
					CHANNELS 6 Xposition Yposition Zposition Zrotation Xrotation Yrotation 
					JOINT UpperArm_L
					{
						OFFSET 5.34809 0.0 0.0
						CHANNELS 6 Xposition Yposition Zposition Zrotation Xrotation Yrotation 
						JOINT LowerArm_L
						{
							OFFSET 24.3286 1.87007e-05 0.0
							CHANNELS 6 Xposition Yposition Zposition Zrotation Xrotation Yrotation 
							JOINT Hand_L
							{
								OFFSET 22.2916 0.0 0.0
								CHANNELS 6 Xposition Yposition Zposition Zrotation Xrotation Yrotation 
								End Site
								{
									OFFSET 0.0 0.0 0.0
								}
							}
						}
					}
				}
				JOINT Shoulder_R
				{
					OFFSET 12.9945 -0.242716 -4.98039
					CHANNELS 6 Xposition Yposition Zposition Zrotation Xrotation Yrotation 
					JOINT UpperArm_R
					{
						OFFSET -5.34813 0.0 0.0
						CHANNELS 6 Xposition Yposition Zposition Zrotation Xrotation Yrotation 
						JOINT LowerArm_R
						{
							OFFSET -24.3289 0.000322201 0.0
							CHANNELS 6 Xposition Yposition Zposition Zrotation Xrotation Yrotation 
							JOINT Hand_R
							{
								OFFSET -22.2915 -0.000108084 0.0
								CHANNELS 6 Xposition Yposition Zposition Zrotation Xrotation Yrotation 
								End Site
								{
									OFFSET 0.0 0.0 0.0
								}
							}
						}
					}
				}
			}
		}
		JOINT UpperLeg_L
		{
			OFFSET -2.19248 -6.46944 0.0
			CHANNELS 6 Xposition Yposition Zposition Zrotation Xrotation Yrotation 
			JOINT LowerLeg_L
			{
				OFFSET 39.0811 0.0 -1.23785e-05
				CHANNELS 6 Xposition Yposition Zposition Zrotation Xrotation Yrotation 
				JOINT Foot_L
				{
					OFFSET 40.9854 0.0 -1.26872e-05
					CHANNELS 6 Xposition Yposition Zposition Zrotation Xrotation Yrotation 
					JOINT Toes_L
					{
						OFFSET 11.7543 0.0 0.0
						CHANNELS 6 Xposition Yposition Zposition Zrotation Xrotation Yrotation 
						End Site
						{
							OFFSET 0.0 0.0 0.0
						}
					}
				}
			}
		}
		JOINT UpperLeg_R
		{
			OFFSET -2.19251 6.46944 0.0
			CHANNELS 6 Xposition Yposition Zposition Zrotation Xrotation Yrotation 
			JOINT LowerLeg_R
			{
				OFFSET -39.0811 -0.00228153 -0.0401928
				CHANNELS 6 Xposition Yposition Zposition Zrotation Xrotation Yrotation 
				JOINT Foot_R
				{
					OFFSET -40.9854 0.0 0.0
					CHANNELS 6 Xposition Yposition Zposition Zrotation Xrotation Yrotation 
					JOINT Toes_R
					{
						OFFSET -11.7543 0.0 0.0
						CHANNELS 6 Xposition Yposition Zposition Zrotation Xrotation Yrotation 
						End Site
						{
							OFFSET 0.0 0.0 0.0
						}
					}
				}
			}
		}
	}
}
MOTION
Frames:	9
Frame Time:	0.0333333
0.000000 0.000000 0.000000 0.000000 0.000000 -0.000000 -223.876000 88.803500 244.254000 -47.661100 81.437100 132.532000 15.735700 0.000005 -0.000001 8.874760 87.010000 -5.315820 8.984550 -0.406207 -0.000000 -6.658750 -6.344610 6.765210 16.377300 -0.000001 -0.000001 0.654610 2.779960 -1.090170 6.456720 -0.000001 -0.000000 8.783910 6.347360 -4.553840 12.994200 -0.242716 4.980390 -92.662700 8.828790 -73.142900 5.348090 -0.000007 -0.000001 -76.294200 6.419580 -1.394160 24.328600 0.000019 0.000005 31.887000 34.293000 -47.835000 22.291600 -0.000001 0.000005 51.550100 4.583560 15.197000 12.994500 -0.242716 -4.980390 89.572900 1.251870 -71.161300 -5.348130 -0.000001 -0.000004 -66.370200 -5.551420 10.108900 -24.328900 0.000322 -0.000009 -0.046496 -0.564709 -4.589010 -22.291500 -0.000108 -0.000004 43.873400 5.330980 -0.815991 -2.192480 -6.469440 -0.000000 -169.469000 -2.948140 3.303940 39.081100 -0.000007 -0.000012 0.079209 -0.105348 36.938300 40.985400 -0.000006 -0.000013 -11.546200 28.124100 -33.758500 11.754300 -0.000000 0.000003 -0.069682 -0.362042 -31.566800 -2.192510 6.469440 -0.000001 -170.003000 -5.049460 149.110000 -39.081100 -0.002282 -0.040193 0.312424 -0.424555 36.060400 -40.985400 0.000008 0.000006 3.857080 -8.065200 -66.446000 -11.754300 -0.000006 -0.000006 -0.010731 0.276688 -5.330760
0.000000 0.000000 0.000000 0.000000 0.000000 -0.000000 -219.833000 88.721100 244.432000 -45.039900 80.771800 131.551000 15.735700 0.000005 -0.000001 19.948200 87.276500 -16.160900 8.984550 -0.406207 -0.000000 -5.726960 -5.558440 7.309820 16.377300 -0.000001 -0.000001 0.463978 2.448950 -0.802015 6.456720 -0.000001 -0.000000 9.231480 5.638470 -4.783090 12.994200 -0.242716 4.980390 -92.691600 8.930060 -73.150800 5.348090 -0.000007 -0.000001 -76.680900 8.360170 -1.947940 24.328600 0.000019 0.000005 22.581000 37.544000 -34.303400 22.291600 -0.000001 0.000005 52.036700 4.599130 14.925400 12.994500 -0.242716 -4.980390 89.499600 1.484190 -71.366100 -5.348130 -0.000001 -0.000004 -68.662300 -2.307170 7.319610 -24.328900 0.000322 -0.000009 -0.105659 -0.962961 -6.187270 -22.291500 -0.000108 -0.000004 43.620500 5.354180 -1.502560 -2.192480 -6.469440 -0.000000 -168.286000 -0.851878 -2.295090 39.081100 -0.000007 -0.000012 0.217656 -0.205406 46.658400 40.985400 -0.000006 -0.000013 -21.367300 20.142500 -19.223800 11.754300 -0.000000 0.000003 0.001927 0.044033 -14.790600 -2.192510 6.469440 -0.000001 -168.156000 -2.713380 152.981000 -39.081100 -0.002282 -0.040193 0.393988 -0.508900 37.515700 -40.985400 0.000008 0.000006 4.543720 -6.551410 -70.096000 -11.754300 -0.000006 -0.000006 -0.010839 0.277468 -5.298850
0.000000 0.000000 0.000000 0.000000 0.000000 -0.000000 -216.150000 88.905900 244.492000 -41.810400 80.703000 129.662000 15.735700 0.000005 -0.000001 34.727500 87.530400 -30.907400 8.984550 -0.406207 -0.000000 -4.799090 -4.473870 7.461680 16.377300 -0.000001 -0.000001 0.327936 2.177070 -0.307178 6.456720 -0.000001 -0.000000 9.515460 5.065490 -4.685260 12.994200 -0.242716 4.980390 -92.609300 8.636360 -73.117900 5.348090 -0.000007 -0.000001 -77.351000 6.553360 -0.968941 24.328600 0.000019 0.000005 15.473600 37.033600 -24.685100 22.291600 -0.000001 0.000005 51.142000 4.619540 14.577300 12.994500 -0.242716 -4.980390 89.408900 1.776880 -71.594900 -5.348130 -0.000001 -0.000004 -70.579700 1.739700 3.913110 -24.328900 0.000322 -0.000009 -0.304097 -2.120300 -8.121450 -22.291500 -0.000108 -0.000004 43.692700 5.374900 -2.139130 -2.192480 -6.469440 -0.000000 -167.862000 0.269229 -8.509610 39.081100 -0.000007 -0.000012 0.334615 -0.218584 56.845700 40.985400 -0.000006 -0.000013 -21.395300 15.088000 -20.465000 11.754300 -0.000000 0.000003 0.001810 0.040071 -14.951300 -2.192510 6.469440 -0.000001 -167.278000 -1.821890 157.287000 -39.081100 -0.002282 -0.040193 0.403196 -0.528489 37.115800 -40.985400 0.000008 0.000006 4.485310 -5.768240 -72.528000 -11.754300 -0.000006 -0.000006 -0.010174 0.272603 -5.497910
0.000000 0.000000 0.000000 0.000000 0.000000 -0.000000 -212.671000 89.414700 244.370000 -40.577100 81.596900 129.689000 15.735700 0.000005 -0.000001 53.288100 87.591300 -49.868200 8.984550 -0.406207 -0.000000 -3.801680 -3.222890 6.737230 16.377300 -0.000001 -0.000001 0.459633 1.969170 0.285746 6.456720 -0.000001 -0.000000 9.459140 4.483150 -4.125260 12.994200 -0.242716 4.980390 -92.530700 8.249710 -72.879900 5.348090 -0.000007 -0.000001 -77.020400 2.110110 1.186580 24.328600 0.000019 0.000005 12.754000 36.895800 -20.657300 22.291600 -0.000001 0.000005 51.318700 4.654550 13.965700 12.994500 -0.242716 -4.980390 89.230500 2.324210 -71.676800 -5.348130 -0.000001 -0.000004 -71.724600 4.858090 0.579502 -24.328900 0.000322 -0.000009 -0.689124 -3.357300 -11.578600 -22.291500 -0.000108 -0.000004 43.550000 5.387350 -2.530650 -2.192480 -6.469440 -0.000000 -168.954000 0.603781 -13.653600 39.081100 -0.000007 -0.000012 0.267990 -0.130547 64.027000 40.985400 -0.000006 -0.000013 -15.558700 16.033500 -30.565300 11.754300 -0.000000 0.000003 0.002040 0.048241 -14.619900 -2.192510 6.469440 -0.000001 -167.804000 -1.470730 162.150000 -39.081100 -0.002282 -0.040193 0.317051 -0.444157 35.238700 -40.985400 0.000008 0.000006 3.355010 -4.765950 -73.800000 -11.754300 -0.000006 -0.000006 -0.009703 0.269069 -5.642440
0.000000 0.000000 0.000000 0.000000 0.000000 -0.000000 -209.378000 90.041000 244.027000 -41.430000 83.559500 131.491000 15.735700 0.000005 -0.000001 70.219400 87.455500 -67.551900 8.984550 -0.406207 -0.000000 -2.926650 -1.970240 5.285560 16.377300 -0.000001 -0.000001 0.889167 1.885510 0.646174 6.456720 -0.000001 -0.000000 9.371050 4.114360 -3.486750 12.994200 -0.242716 4.980390 -92.508700 7.938110 -72.398400 5.348090 -0.000007 -0.000001 -75.197600 -2.074910 4.155920 24.328600 0.000019 0.000005 11.983000 35.363700 -20.139100 22.291600 -0.000001 0.000005 50.979500 4.645360 14.127300 12.994500 -0.242716 -4.980390 89.137900 2.623290 -71.800300 -5.348130 -0.000001 -0.000004 -72.807900 6.594850 -2.524700 -24.328900 0.000322 -0.000009 -1.183030 -4.065960 -16.224100 -22.291500 -0.000108 -0.000004 44.068900 5.405500 -3.114100 -2.192480 -6.469440 -0.000000 -171.437000 0.681468 -18.171100 39.081100 -0.000007 -0.000012 0.201680 -0.084025 67.380900 40.985400 -0.000006 -0.000013 -10.505300 12.999500 -39.000100 11.754300 -0.000000 0.000003 0.002227 0.056702 -14.276900 -2.192510 6.469440 -0.000001 -169.622000 -1.107690 166.966000 -39.081100 -0.002282 -0.040193 0.227068 -0.349076 32.661800 -40.985400 0.000008 0.000006 2.287620 -3.121080 -74.551500 -11.754300 -0.000006 -0.000006 -0.008857 0.262553 -5.908800
0.000000 0.000000 0.000000 0.000000 0.000000 -0.000000 -206.321000 90.736700 243.588000 -41.495700 85.934300 131.690000 15.735700 0.000005 -0.000001 83.626000 87.442000 -81.749600 8.984550 -0.406207 -0.000000 -2.666890 -0.738515 3.735770 16.377300 -0.000001 -0.000001 1.662830 1.959230 0.722043 6.456720 -0.000001 -0.000000 9.477950 3.826780 -3.120710 12.994200 -0.242716 4.980390 -92.471400 7.544940 -71.803800 5.348090 -0.000007 -0.000001 -72.610700 -6.635870 7.259840 24.328600 0.000019 0.000005 11.565700 33.084000 -20.551600 22.291600 -0.000001 0.000005 50.760900 4.562180 15.557200 12.994500 -0.242716 -4.980390 89.195400 2.460900 -71.888400 -5.348130 -0.000001 -0.000004 -74.129600 7.708420 -5.229190 -24.328900 0.000322 -0.000009 -1.313420 -3.397890 -21.138400 -22.291500 -0.000108 -0.000004 45.337600 5.414930 -3.426770 -2.192480 -6.469440 -0.000000 -174.201000 0.696031 -22.237300 39.081100 -0.000007 -0.000012 0.145430 -0.062427 66.766500 40.985400 -0.000006 -0.000013 -7.126060 8.264230 -46.328800 11.754300 -0.000000 0.000003 0.002276 0.059391 -14.167800 -2.192510 6.469440 -0.000001 -172.029000 -1.114850 171.104000 -39.081100 -0.002282 -0.040193 0.107161 -0.185145 29.290400 -40.985400 0.000008 0.000006 0.373352 -0.984670 -74.433600 -11.754300 -0.000006 -0.000006 -0.008018 0.255848 -6.182750
0.000000 0.000000 0.000000 0.000000 0.000000 -0.000000 -203.429000 91.444100 243.159000 -28.336300 88.083000 117.969000 15.735700 0.000005 -0.000001 97.477500 87.560500 -96.200700 8.984550 -0.406207 -0.000000 -2.932980 0.515531 2.567040 16.377300 -0.000001 -0.000001 2.439200 2.168260 0.578921 6.456720 -0.000001 -0.000000 9.944550 3.562650 -3.089080 12.994200 -0.242716 4.980390 -92.509100 7.385650 -71.176300 5.348090 -0.000007 -0.000001 -69.111700 -11.560000 10.226200 24.328600 0.000019 0.000005 10.484600 29.182300 -20.785000 22.291600 -0.000001 0.000005 50.705000 4.481140 16.910400 12.994500 -0.242716 -4.980390 89.231500 2.366740 -72.004300 -5.348130 -0.000001 -0.000004 -74.893200 8.882090 -7.328550 -24.328900 0.000322 -0.000009 -1.266760 -2.559650 -26.340700 -22.291500 -0.000108 -0.000004 46.274200 5.424050 -3.735330 -2.192480 -6.469440 -0.000000 -176.260000 0.892989 -25.559700 39.081100 -0.000007 -0.000012 0.096409 -0.050397 62.399800 40.985400 -0.000006 -0.000013 -4.810550 3.413850 -53.815600 11.754300 -0.000000 0.000003 0.002478 0.078703 -13.384900 -2.192510 6.469440 -0.000001 -174.191000 -1.602180 174.602000 -39.081100 -0.002282 -0.040193 -0.002223 0.011757 25.208000 -40.985400 0.000008 0.000006 -2.284240 1.162090 -73.093500 -11.754300 -0.000006 -0.000006 -0.006679 0.244548 -6.644040
0.000000 0.000000 0.000000 0.000000 0.000000 -0.000000 -200.613000 92.009400 242.757000 35.834500 89.082400 52.993700 15.735700 0.000005 -0.000001 108.817000 87.682600 -107.947000 8.984550 -0.406207 -0.000000 -3.389610 1.409480 1.782660 16.377300 -0.000001 -0.000001 3.122070 2.489330 0.165582 6.456720 -0.000001 -0.000000 10.466500 3.425650 -3.255580 12.994200 -0.242716 4.980390 -92.612300 7.431830 -70.570800 5.348090 -0.000007 -0.000001 -64.977900 -16.362300 13.081400 24.328600 0.000019 0.000005 8.822600 24.169500 -20.761900 22.291600 -0.000001 0.000005 50.731200 4.437970 17.613200 12.994500 -0.242716 -4.980390 89.188600 2.520100 -72.146900 -5.348130 -0.000001 -0.000004 -75.064100 9.867310 -8.871950 -24.328900 0.000322 -0.000009 -0.609131 -0.994206 -31.537700 -22.291500 -0.000108 -0.000004 47.259300 5.430920 -3.971110 -2.192480 -6.469440 -0.000000 -177.575000 1.582710 -27.703700 39.081100 -0.000007 -0.000012 0.052919 -0.038350 54.066200 40.985400 -0.000006 -0.000013 -2.971330 -1.457850 -56.803200 11.754300 -0.000000 0.000003 0.002453 0.073994 -13.575800 -2.192510 6.469440 -0.000001 -175.725000 -1.131400 177.361000 -39.081100 -0.002282 -0.040193 0.002856 0.001158 21.733700 -40.985400 0.000008 0.000006 -2.568160 3.037480 -71.677900 -11.754300 -0.000006 -0.000006 -0.005314 0.232142 -7.150010
0.000000 0.000000 0.000000 0.000000 0.000000 -0.000000 -197.786000 92.320200 242.417000 82.134700 88.476400 5.758050 15.735700 0.000005 -0.000001 117.584000 87.831500 -116.926000 8.984550 -0.406207 -0.000000 -3.933920 1.939800 1.383870 16.377300 -0.000001 -0.000001 3.725790 2.773160 -0.378457 6.456720 -0.000001 -0.000000 10.763900 3.365740 -3.768910 12.994200 -0.242716 4.980390 -92.696300 7.495520 -70.149600 5.348090 -0.000007 -0.000001 -60.756900 -21.159300 15.739300 24.328600 0.000019 0.000005 7.309630 19.713200 -20.821300 22.291600 -0.000001 0.000005 51.493200 4.383600 18.485000 12.994500 -0.242716 -4.980390 89.207500 2.461100 -72.145800 -5.348130 -0.000001 -0.000004 -75.199700 10.750600 -10.173600 -24.328900 0.000322 -0.000009 0.891519 1.232820 -35.874000 -22.291500 -0.000108 -0.000004 48.035700 5.427270 -3.845150 -2.192480 -6.469440 -0.000000 -177.919000 2.715380 -28.548900 39.081100 -0.000007 -0.000012 0.031975 -0.034631 42.714500 40.985400 -0.000006 -0.000013 -2.351380 -4.810680 -57.599700 11.754300 -0.000000 0.000003 0.002487 0.082593 -13.227200 -2.192510 6.469440 -0.000001 -176.854000 -0.158004 179.878000 -39.081100 -0.002282 -0.040193 0.007739 -0.013206 18.485200 -40.985400 0.000008 0.000006 -2.559160 4.911890 -70.472800 -11.754300 -0.000006 -0.000006 -0.003568 0.214539 -7.867130
